<svg xmlns="http://www.w3.org/2000/svg" width="144.74" height="117.26" viewBox="0 0 144.74 117.26">
  <path id="arrow-2" d="M59.849,122.117c-2.214-1.427-4.458-3.057-6.083-3.625a3.4,3.4,0,0,0-3.729.568,2.711,2.711,0,0,0-.823,1.646,2.839,2.839,0,0,0,.87,2.307,10.492,10.492,0,0,0,3.547,2.073,45.882,45.882,0,0,0,7.964,2.182c1.927.781,3.646.755,4.885-.12,1.13-.8,2.115-2.536,2.115-5.927v-8.6a1.831,1.831,0,1,0-3.661,0v8.6a12.214,12.214,0,0,1-.068,1.386c-4.318-5.063-8.875-13.443-13.427-22.933C43.656,83.44,35.974,63.966,29.812,51.612,24.463,40.877,10.323,10.607,3.823.836A1.832,1.832,0,1,0,.776,2.872c6.448,9.7,20.453,39.734,25.76,50.385,6.156,12.339,13.828,31.792,21.6,48.005C52.062,109.456,56.036,116.831,59.849,122.117Z" transform="matrix(0.438, -0.899, 0.899, 0.438, -0.223, 61.643)" fill="#56ffff" fill-rule="evenodd"/>
</svg>
